<svg width="170" height="32" viewBox="0 0 170 32" fill="none" xmlns="http://www.w3.org/2000/svg">
<path d="M0 8.42105C0 3.77023 3.77023 0 8.42105 0H23.5789C28.2298 0 32 3.77023 32 8.42105V23.5789C32 28.2298 28.2298 32 23.5789 32H8.42105C3.77023 32 0 28.2298 0 23.5789V8.42105Z" fill="#465FFF"/>
<g filter="url(#filter0_d_1624_24907)">
<path d="M8.42383 8.42152C8.42383 7.49135 9.17787 6.7373 10.108 6.7373V6.7373C11.0382 6.7373 11.7922 7.49135 11.7922 8.42152V23.5794C11.7922 24.5096 11.0382 25.2636 10.108 25.2636V25.2636C9.17787 25.2636 8.42383 24.5096 8.42383 23.5794V8.42152Z" fill="white"/>
</g>
<g filter="url(#filter1_d_1624_24907)">
<path d="M14.7422 15.1569C14.7422 14.2267 15.4962 13.4727 16.4264 13.4727V13.4727C17.3566 13.4727 18.1106 14.2267 18.1106 15.1569V23.5779C18.1106 24.5081 17.3566 25.2621 16.4264 25.2621V25.2621C15.4962 25.2621 14.7422 24.5081 14.7422 23.5779V15.1569Z" fill="white" fill-opacity="0.9" shape-rendering="crispEdges"/>
</g>
<g filter="url(#filter2_d_1624_24907)">
<path d="M21.0547 10.9459C21.0547 10.0158 21.8087 9.26172 22.7389 9.26172V9.26172C23.6691 9.26172 24.4231 10.0158 24.4231 10.9459V23.5775C24.4231 24.5077 23.6691 25.2617 22.7389 25.2617V25.2617C21.8087 25.2617 21.0547 24.5077 21.0547 23.5775V10.9459Z" fill="white" fill-opacity="0.7" shape-rendering="crispEdges"/>
</g>

<g fill="#101828">
    <path d="M44.4 24.69H47.3L49.1 19.49H54.0L55.8 24.69H58.7L52.0 7.31H51.1L44.4 24.69ZM52.7 17.59L51.5 14.49L50.3 17.59H52.7Z"/>
    <path d="M62.0 7.31H65.0V10.11H62.0V13.89H64.4V16.69H62.0V21.89H65.0V24.69H62.0C59.0 24.69 59.0 7.31 62.0 7.31Z"/>

    <path d="M70.0 7.31H73.0V10.11H70.0V13.89H72.4V16.69H70.0V21.89H73.0V24.69H70.0C67.0 24.69 67.0 7.31 70.0 7.31Z"/>
    <path d="M78.0 7.31H81.0V24.69H78.0V7.31Z"/>
    <path d="M81.0 7.31H83.5C86.5 7.31 87.0 9.81 87.0 16.00C87.0 22.19 86.5 24.69 83.5 24.69H81.0V7.31Z M83.5 9.81H84.0C85.5 9.81 85.5 11.59 85.5 16.00C85.5 20.41 85.5 22.19 84.0 22.19H83.5V9.81Z"/>
    <path d="M91.0 7.31H94.0V21.89C94.0 23.49 93.4 24.69 91.5 24.69H91.0V7.31Z"/>
    <path d="M98.0 7.31H104.0V10.11H101.0V24.69H98.0V10.11H95.0V7.31H104.0Z"/>
    <path d="M107.0 7.31H110.0V24.69H107.0V7.31Z"/>
    <path d="M110.0 7.31H112.5C115.5 7.31 116.0 9.81 116.0 12.00C116.0 14.19 115.5 16.69 112.5 16.69H110.0V7.31Z M112.5 9.81H113.0C114.5 9.81 114.5 10.59 114.5 12.00C114.5 13.41 114.5 14.19 113.0 14.19H112.5V9.81Z"/>
    <path d="M110.0 19.49H112.0L116.0 24.69H113.0L110.0 19.49Z"/>
    <path d="M120.0 24.69H122.9L124.7 19.49H129.6L131.4 24.69H134.3L127.6 7.31H126.7L120.0 24.69ZM128.3 17.59L127.1 14.49L125.9 17.59H128.3Z"/>
    <path d="M138.0 16.00C138.0 9.81 140.5 7.31 143.5 7.31H147.0V10.11H143.5C141.5 10.11 141.5 11.59 141.5 16.00C141.5 20.41 141.5 21.89 143.5 21.89H147.0V24.69H143.5C140.5 24.69 138.0 22.19 138.0 16.00Z"/>
    <path d="M151.0 7.31H154.0V24.69H151.0V7.31Z"/>
    <path d="M154.0 15.00L157.0 7.31H160.0L156.0 16.00L160.0 24.69H157.0L154.0 16.00V15.00Z"/>
</g>
<defs>
<filter id="filter0_d_1624_24907" x="7.42383" y="6.2373" width="5.36841" height="20.5263" filterUnits="userSpaceOnUse" color-interpolation-filters="sRGB">
<feFlood flood-opacity="0" result="BackgroundImageFix"/>
<feColorMatrix in="SourceAlpha" type="matrix" values="0 0 0 0 0 0 0 0 0 0 0 0 0 0 0 0 0 0 127 0" result="hardAlpha"/>
<feOffset dy="0.5"/>
<feGaussianBlur stdDeviation="0.5"/>
<feComposite in2="hardAlpha" operator="out"/>
<feColorMatrix type="matrix" values="0 0 0 0 0 0 0 0 0 0 0 0 0 0 0 0 0 0 0.12 0"/>
<feBlend mode="normal" in2="BackgroundImageFix" result="effect1_dropShadow_1624_24907"/>
<feBlend mode="normal" in="SourceGraphic" in2="effect1_dropShadow_1624_24907" result="shape"/>
</filter>
<filter id="filter1_d_1624_24907" x="13.7422" y="12.9727" width="5.36841" height="13.7895" filterUnits="userSpaceOnUse" color-interpolation-filters="sRGB">
<feFlood flood-opacity="0" result="BackgroundImageFix"/>
<feColorMatrix in="SourceAlpha" type="matrix" values="0 0 0 0 0 0 0 0 0 0 0 0 0 0 0 0 0 0 127 0" result="hardAlpha"/>
<feOffset dy="0.5"/>
<feGaussianBlur stdDeviation="0.5"/>
<feComposite in2="hardAlpha" operator="out"/>
<feColorMatrix type="matrix" values="0 0 0 0 0 0 0 0 0 0 0 0 0 0 0 0 0 0 0.12 0"/>
<feBlend mode="normal" in2="BackgroundImageFix" result="effect1_dropShadow_1624_24907"/>
<feBlend mode="normal" in="SourceGraphic" in2="effect1_dropShadow_1624_24907" result="shape"/>
</filter>
<filter id="filter2_d_1624_24907" x="20.0547" y="8.76172" width="5.36841" height="18" filterUnits="userSpaceOnUse" color-interpolation-filters="sRGB">
<feFlood flood-opacity="0" result="BackgroundImageFix"/>
<feColorMatrix in="SourceAlpha" type="matrix" values="0 0 0 0 0 0 0 0 0 0 0 0 0 0 0 0 0 0 127 0" result="hardAlpha"/>
<feOffset dy="0.5"/>
<feGaussianBlur stdDeviation="0.5"/>
<feComposite in2="hardAlpha" operator="out"/>
<feColorMatrix type="matrix" values="0 0 0 0 0 0 0 0 0 0 0 0 0 0 0 0 0 0 0.12 0"/>
<feBlend mode="normal" in2="BackgroundImageFix" result="effect1_dropShadow_1624_24907"/>
<feBlend mode="normal" in="SourceGraphic" in2="effect1_dropShadow_1624_24907" result="shape"/>
</filter>
</defs>
</svg>
